<svg width="16" height="16" viewBox="0 0 16 16" fill="none" xmlns="http://www.w3.org/2000/svg">
<path fill-rule="evenodd" clip-rule="evenodd" d="M12.6666 2.66669H3.33331C2.22874 2.66669 1.33331 3.56212 1.33331 4.66669V11.3334C1.33331 12.4379 2.22874 13.3334 3.33331 13.3334H12.6666C13.7712 13.3334 14.6666 12.4379 14.6666 11.3334V4.66669C14.6666 3.56212 13.7712 2.66669 12.6666 2.66669ZM12.3933 4.00002L8.47331 7.92002C8.34814 8.04623 8.17774 8.11722 7.99998 8.11722C7.82222 8.11722 7.65182 8.04623 7.52665 7.92002L3.60665 4.00002H12.3933ZM12.6666 12C13.0348 12 13.3333 11.7015 13.3333 11.3334V4.94002L9.41331 8.86002C8.63247 9.6399 7.36749 9.6399 6.58665 8.86002L2.66665 4.94002V11.3334C2.66665 11.7015 2.96512 12 3.33331 12H12.6666Z" fill="#212121"/>
</svg>
